#!OML:ASF H:\Terrain\Patient Classification 1\PLAYGROUND\JustinFriday\JustinFriday.ASF
:FULLY-SPECIFIED
:DEGREES
804
root 14.784 20.0636 8.74066 138.902 -18.0592 -158.209
lowerback 26.225 5.59191 12.1706
upperback -2.69445 11.7829 3.80918
thorax -15.4287 4.25399 -6.57434
lowerneck 10.892 -4.60493 11.0684
upperneck 23.033 -9.25399 4.41556
head 5.22304 -4.62067 -0.623369
rclavicle 3.89618e-014 3.18055e-015
rhumerus 117.901 3.22093 -122.989
rradius 31.3263
rwrist 102.853
rhand 36.5224 24.8407
rfingers 7.12502
rthumb 59.4553 10.501
lclavicle 3.89618e-014 3.18055e-015
lhumerus 117.287 -3.54696 66.204
lradius 16.1907
lwrist -8.3489
lhand -12.4303 -11.249
lfingers 7.12502
lthumb 13.6423 18.284
rfemur -7.54011 19.7169 -6.68159
rtibia 39.2752
rfoot 12.3508 -4.03371
rtoes 11.229
lfemur -17.539 -3.59194 28.1937
ltibia 16.2935
lfoot -23.1862 44.0419
ltoes -4.27259
805
root 14.7724 20.0843 8.69407 138.104 -18.6685 -158.156
lowerback 26.708 5.5986 11.9574
upperback -2.39153 11.7859 4.20582
thorax -15.4458 4.276 -6.07173
lowerneck 10.7705 -4.23828 10.01
upperneck 23.1828 -8.85147 4.71129
head 5.32878 -4.45616 -0.36974
rclavicle 1.74135e-013 8.26944e-014
rhumerus 117.727 2.85465 -120.975
rradius 32.338
rwrist 102.013
rhand 38.0381 25.16
rfingers 7.12502
rthumb 60.7499 12.1918
lclavicle 1.74135e-013 8.26944e-014
lhumerus 117.162 -2.89357 66.4674
lradius 16.2383
lwrist -7.47674
lhand -12.4389 -11.3647
lfingers 7.12502
lthumb 13.634 18.1688
rfemur -6.47122 20.5739 -6.25809
rtibia 41.9707
rfoot 13.3526 -3.04792
rtoes 9.03443
lfemur -17.5225 -4.74836 27.9513
ltibia 16.472
lfoot -26.2701 45.017
ltoes -2.94442
806
root 14.7668 20.1053 8.64655 137.371 -19.3736 -158.132
lowerback 27.2527 5.58214 11.6732
upperback -2.17402 11.7493 4.50762
thorax -15.593 4.26893 -5.64028
lowerneck 10.3568 -3.91374 8.94584
upperneck 23.6623 -8.57595 4.89874
head 5.57741 -4.34688 -0.165744
rclavicle -2.62396e-014 -9.54166e-014
rhumerus 117.319 2.13841 -118.816
rradius 33.758
rwrist 100.815
rhand 40.0148 25.6798
rfingers 7.12502
rthumb 62.4074 14.7026
lclavicle -2.62396e-014 -9.54166e-014
lhumerus 117.063 -2.38391 66.7447
lradius 16.1525
lwrist -6.7546
lhand -12.4515 -11.552
lfingers 7.12502
lthumb 13.6219 17.9823
rfemur -5.32601 21.2926 -5.79586
rtibia 44.5679
rfoot 14.3683 -1.92742
rtoes 6.58918
lfemur -17.5527 -5.23958 27.5625
ltibia 16.5644
lfoot -27.6928 45.5747
ltoes -2.3433
807
root 14.7652 20.1337 8.60628 136.466 -20.3595 -158.261
lowerback 28.1461 5.4987 11.2199
upperback -1.95939 11.6029 4.6891
thorax -15.934 4.2011 -5.25623
lowerneck 10.2113 -3.31161 7.97318
upperneck 24.0875 -7.94652 5.38523
head 5.78131 -4.06331 0.13814
rclavicle 1.03368e-014 5.725e-014
rhumerus 116.824 1.53165 -116.834
rradius 35.2233
rwrist 99.7933
rhand 42.0419 26.1935
rfingers 7.12502
rthumb 64.0647 17.5326
lclavicle 1.03368e-014 5.725e-014
lhumerus 116.992 -2.30021 67.5245
lradius 15.8752
lwrist -6.72934
lhand -12.4446 -11.8865
lfingers 7.12502
lthumb 13.6285 17.6473
rfemur -3.77113 22.089 -5.36443
rtibia 47.0637
rfoot 15.1526 -1.39621
rtoes 7.75136
lfemur -17.4174 -5.00068 26.6695
ltibia 16.6172
lfoot -27.9562 45.2225
ltoes -1.01666
808
root 14.7558 20.1554 8.57157 135.469 -21.3517 -158.191
lowerback 29.0471 5.29097 11.1331
upperback -1.73434 11.3963 4.85391
thorax -16.1844 4.08032 -5.03769
lowerneck 10.0776 -2.85953 7.12987
upperneck 24.4276 -7.43768 5.61357
head 5.93472 -3.84387 0.346438
rclavicle -7.15625e-014 3.81667e-014
rhumerus 116.545 1.49169 -115.324
rradius 36.3408
rwrist 99.5042
rhand 43.7637 26.6629
rfingers 7.12502
rthumb 65.4319 20.2218
lclavicle -7.15625e-014 3.81667e-014
lhumerus 116.762 -2.0366 68.1205
lradius 15.8719
lwrist -6.46833
lhand -12.4163 -12.1585
lfingers 7.12502
lthumb 13.6558 17.3735
rfemur -2.01024 22.7006 -4.70356
rtibia 49.4157
rfoot 16.0094 -0.836832
rtoes 8.48376
lfemur -17.3622 -4.65063 25.8799
ltibia 16.6557
lfoot -28.4197 44.5366
ltoes 1.51324
809
root 14.7428 20.1842 8.5379 134.898 -22.2133 -158.158
lowerback 29.6294 5.15702 11.0722
upperback -1.68068 11.2812 4.9509
thorax -16.4503 4.00135 -4.9163
lowerneck 10.0801 -2.66638 6.65166
upperneck 24.6149 -7.11799 5.32369
head 5.98764 -3.72207 0.336645
rclavicle 8.42847e-014 3.49861e-014
rhumerus 116.181 1.39563 -113.954
rradius 37.4927
rwrist 99.3176
rhand 45.5229 27.1801
rfingers 7.12502
rthumb 66.7833 23.2833
lclavicle 8.42847e-014 3.49861e-014
lhumerus 116.43 -1.0679 67.6082
lradius 16.0888
lwrist -4.87494
lhand -12.3658 -12.2348
lfingers 7.12502
lthumb 13.7044 17.294
rfemur -0.617293 22.9581 -4.13382
rtibia 51.6181
rfoot 16.7178 -0.0958276
rtoes 5.99175
lfemur -17.6021 -4.56504 25.2709
ltibia 16.9153
lfoot -30.3411 43.9797
ltoes 5.89614
810
root 14.7303 20.2232 8.49312 134.43 -23.3158 -158.955
lowerback 30.5481 5.26312 10.1655
upperback -1.68823 11.2257 4.82109
thorax -17.0614 3.98846 -4.68864
lowerneck 10.696 -2.61284 6.43124
upperneck 24.3766 -6.86905 4.95345
head 5.80022 -3.65302 0.283111
rclavicle 3.18055e-015 -1.27222e-014
rhumerus 115.525 1.04496 -112.692
rradius 38.8105
rwrist 99.0472
rhand 47.3947 27.6862
rfingers 7.12502
rthumb 68.1609 26.8464
lclavicle 3.18055e-015 -1.27222e-014
lhumerus 115.939 -0.385549 67.1111
lradius 16.2829
lwrist -3.41974
lhand -12.2317 -12.3143
lfingers 7.12502
lthumb 13.8337 17.2056
rfemur 1.01932 23.4765 -4.24194
rtibia 53.7031
rfoot 17.0613 -0.0568911
rtoes 5.84284
lfemur -17.3245 -5.01919 23.8894
ltibia 17.5176
lfoot -33.2582 43.0342
ltoes 11.1793
811
root 14.715 20.2571 8.44747 133.819 -24.263 -159.692
lowerback 31.4818 5.39787 9.38963
upperback -1.59408 11.2256 4.81317
thorax -17.5438 4.00223 -4.39996
lowerneck 11.444 -2.26133 5.96861
upperneck 23.9774 -6.25969 4.94323
head 5.55692 -3.40963 0.393947
rclavicle 3.10104e-014 2.70347e-014
rhumerus 115.011 0.828956 -111.332
rradius 39.9508
rwrist 98.8326
rhand 49.2318 28.1464
rfingers 7.12502
rthumb 69.4409 30.7065
lclavicle 3.10104e-014 2.70347e-014
lhumerus 115.517 -0.188369 67.5132
lradius 16.312
lwrist -2.92754
lhand -12.0767 -12.5511
lfingers 7.12502
lthumb 13.9831 16.9587
rfemur 2.86651 24.1646 -4.01571
rtibia 55.6792
rfoot 16.9642 2.04981
rtoes 1.41998
lfemur -16.8472 -5.68496 22.7633
ltibia 18.2354
lfoot -35.2564 41.9433
ltoes 14.614
